<svg width="55" height="65" viewBox="0 0 55 65" fill="none" xmlns="http://www.w3.org/2000/svg">
<path d="M38.451 31.0852L30.1135 26.3214L29.6679 27.1048C29.424 27.53 29.0213 27.841 28.5483 27.9696C28.0753 28.0981 27.5706 28.0337 27.1451 27.7905L14.3355 20.4822C13.9098 20.2388 13.5982 19.8364 13.4691 19.3633C13.34 18.8903 13.404 18.3853 13.6469 17.9594L16.8281 12.3848C16.888 12.2793 16.9681 12.1866 17.0638 12.1122C17.1596 12.0377 17.2691 11.9828 17.3861 11.9508C17.5031 11.9187 17.6253 11.9101 17.7456 11.9254C17.866 11.9406 17.9821 11.9795 18.0874 12.0398L41.3893 25.2892" stroke="black" stroke-width="1.5" stroke-linecap="round" stroke-linejoin="round"/>
<path d="M16.9749 53.9986C15.6555 53.9986 14.3901 53.4257 13.4571 52.406C12.5241 51.3863 12 50.0032 12 48.5611C12 47.119 12.5241 45.7359 13.4571 44.7162C14.3901 43.6965 15.6555 43.1236 16.9749 43.1236C29.4209 43.1236 37.7027 36.7802 41.0245 27.7184C41.5946 25.987 42.1377 25 43.5116 25C44.1713 25 44.8041 25.2864 45.2707 25.7961C45.7373 26.3059 45.9997 26.9973 46 27.7184C45.9961 34.0547 32.7284 53.9986 16.9749 53.9986Z" stroke="black" stroke-width="1.5" stroke-linecap="round" stroke-linejoin="round"/>
</svg>
