<svg width="55" height="65" viewBox="0 0 55 65" fill="none" xmlns="http://www.w3.org/2000/svg">
<path d="M38.394 39.8712L34.872 52.1926C34.7158 52.738 34.3862 53.2178 33.933 53.5591C33.4798 53.9005 32.9278 54.0848 32.3604 54.0843H20.6324C20.0651 54.0848 19.513 53.9005 19.0598 53.5591C18.6066 53.2178 18.277 52.738 18.1209 52.1926L14.6032 39.8698C14.2438 38.6296 14.3581 37.3 14.924 36.1394C15.49 34.9788 16.4671 34.0699 17.6656 33.5894C23.3364 31.3238 29.6609 31.3238 35.3317 33.5894C36.5302 34.0702 37.5073 34.9794 38.0729 36.1403C38.6386 37.3013 38.754 38.631 38.394 39.8712Z" stroke="black" stroke-width="1.5" stroke-linecap="round" stroke-linejoin="round"/>
<path d="M21.2332 32.4834L22.4919 16.1215C22.5171 15.7921 22.6664 15.4844 22.9095 15.2606C23.1526 15.0369 23.4716 14.9136 23.802 14.9157H29.2187C29.5474 14.9162 29.8638 15.0406 30.1047 15.2641C30.3457 15.4877 30.4935 15.7938 30.5186 16.1215L31.7773 32.4849M30.4158 48.86H22.5815L21.2757 38.4157H31.7215L30.4158 48.86Z" stroke="black" stroke-width="1.5" stroke-linecap="round" stroke-linejoin="round"/>
</svg>
