<svg width="55" height="65" viewBox="0 0 55 65" fill="none" xmlns="http://www.w3.org/2000/svg">
<path d="M15.2893 30.279L19.3947 34.5648C19.6644 34.8461 19.8784 35.1802 20.0244 35.5479C20.1704 35.9156 20.2455 36.3097 20.2455 36.7077C20.2455 37.1058 20.1704 37.4999 20.0244 37.8676C19.8784 38.2353 19.6644 38.5693 19.3947 38.8507L13.2358 45.2803C12.4366 46.1366 11.9926 47.2872 12.0001 48.4828C12.0075 49.6784 12.4658 50.8228 13.2756 51.6683C14.0855 52.5137 15.1817 52.9921 16.327 52.9999C17.4723 53.0077 18.5744 52.5442 19.3947 51.7099L44.0301 25.9915C45.1169 24.8537 45.7273 23.3124 45.7273 21.7056C45.7273 20.0988 45.1169 18.5575 44.0301 17.4198L35.9665 9M31.7108 13.1356L37.8697 19.5652M27.6054 17.4198L33.7643 23.8494M23.5016 21.7073L29.6605 28.1352M19.3947 25.9931L25.5535 32.4227" stroke="black" stroke-width="1.7" stroke-linecap="round" stroke-linejoin="round"/>
</svg>
