<svg width="55" height="65" viewBox="0 0 55 65" fill="none" xmlns="http://www.w3.org/2000/svg">
<path d="M32.366 49.4371H21.7953C21.3423 49.4371 21.0403 49.7391 21.0403 50.1921C21.0403 50.6452 21.3423 50.9472 21.7953 50.9472H32.366C32.8191 50.9472 33.1211 50.6452 33.1211 50.1921C33.1211 49.7391 32.8191 49.4371 32.366 49.4371Z" fill="black"/>
<path d="M32.366 46.4169H21.7953C21.3423 46.4169 21.0403 46.7189 21.0403 47.1719C21.0403 47.625 21.3423 47.927 21.7953 47.927H32.366C32.8191 47.927 33.1211 47.625 33.1211 47.1719C33.1211 46.7189 32.8191 46.4169 32.366 46.4169Z" fill="black"/>
<path d="M35.0843 26.0306L34.9332 25.8796H34.895C34.0481 18.7692 32.2548 14.9206 30.7049 12.8172C29.799 11.6847 28.4399 10.9297 26.9298 11.0052C25.4197 11.0052 24.0606 11.6847 23.23 12.8928C21.7329 14.8889 20.0323 18.7175 19.2343 25.8736L19.1528 25.9551C16.5101 27.6162 15 30.4854 15 33.5056V45.6618C15 51.0982 19.3793 55.4775 24.8157 55.4775H29.346C34.7823 55.4775 39.1616 51.0982 39.1616 45.6618V33.5056C39.1615 30.4099 37.6514 27.6162 35.0843 26.0306ZM24.3626 13.7988C24.9666 12.9683 25.8727 12.5152 26.9298 12.5152C27.9113 12.5152 28.8174 12.9683 29.4214 13.7233C31.161 15.9784 33.1751 20.5985 33.7287 29.8334C33.8214 31.4684 33.8762 33.2007 33.8762 35.0157V35.6952C33.8762 38.7154 31.4601 41.1315 28.4399 41.1315H25.7217C22.7015 41.1315 20.2854 38.7154 20.2854 35.6952V35.0157C20.2854 32.0933 20.427 29.3837 20.6413 26.8855C21.3497 19.5271 22.9867 15.7481 24.3626 13.7988ZM37.6514 45.6618C37.6514 50.2677 33.9517 53.9674 29.3459 53.9674H24.8156C20.2097 53.9674 16.51 50.2677 16.51 45.6618V33.5056C16.51 31.316 17.4161 29.2773 19.0016 27.9182C18.8506 30.1079 18.7752 32.4485 18.7752 35.0157V35.6952C18.7752 39.546 21.8709 42.6416 25.7216 42.6416H28.4398C32.2906 42.6416 35.3862 39.5459 35.3862 35.6952V35.0157C35.3862 33.1381 35.3432 31.3034 35.2251 29.5762C35.19 29.013 35.1497 28.4659 35.1042 27.9352C36.7524 29.2943 37.6514 31.3249 37.6514 33.5057L37.6514 45.6618Z" fill="black"/>
</svg>
