<svg width="55" height="65" viewBox="0 0 55 65" fill="none" xmlns="http://www.w3.org/2000/svg">
<g clip-path="url(#clip0_25_41)">
<path d="M7.64991 31.6C7.26866 31.6719 6.99366 32.0094 6.99991 32.4V35.35C6.88116 35.7156 7.03741 36.1156 7.37491 36.3C7.39053 36.3094 7.40928 36.3187 7.42491 36.325C7.43428 36.3344 7.44053 36.3406 7.44991 36.35C7.46553 36.35 7.48428 36.35 7.49991 36.35C7.50928 36.3594 7.51553 36.3656 7.52491 36.375C7.54053 36.375 7.55928 36.375 7.57491 36.375C7.58428 36.375 7.59053 36.375 7.59991 36.375C7.64991 36.3875 7.69991 36.3969 7.74991 36.4C7.75928 36.4 7.76553 36.4 7.77491 36.4C7.78428 36.4 7.79053 36.4 7.79991 36.4C8.75303 36.4 9.39991 37.0469 9.39991 38V43.6C9.39991 47.5844 12.0968 50.9781 15.7499 52.05C15.578 52.7531 14.9937 53.2 14.1999 53.2C13.9124 53.1968 13.6437 53.3468 13.4968 53.5968C13.353 53.8468 13.353 54.1531 13.4968 54.4031C13.6437 54.6531 13.9124 54.8031 14.1999 54.8C15.7093 54.8 16.9624 53.7562 17.2999 52.35C17.5937 52.3812 17.8968 52.4 18.1999 52.4H35.7999C36.103 52.4 36.4062 52.3812 36.6999 52.35C37.0374 53.7562 38.2905 54.8 39.7999 54.8C40.0874 54.8031 40.3562 54.6531 40.503 54.4031C40.6468 54.1531 40.6468 53.8468 40.503 53.5968C40.3562 53.3468 40.0874 53.1968 39.7999 53.2C39.0062 53.2 38.4218 52.7531 38.2499 52.05C41.903 50.9781 44.5999 47.5844 44.5999 43.6V38C44.5999 37.0469 45.2468 36.4 46.1999 36.4C46.2749 36.4031 46.353 36.3937 46.4249 36.375C46.5374 36.3406 46.6374 36.2781 46.7249 36.2C46.7405 36.1937 46.7593 36.1844 46.7749 36.175C46.7749 36.1656 46.7749 36.1594 46.7749 36.15C46.8124 36.1187 46.8437 36.0875 46.8749 36.05C46.8749 36.0406 46.8749 36.0344 46.8749 36.025C46.9343 35.9406 46.9749 35.85 46.9999 35.75C47.003 35.7156 47.003 35.6844 46.9999 35.65C46.9999 35.6344 46.9999 35.6156 46.9999 35.6V35.5C46.9999 35.475 46.9999 35.45 46.9999 35.425V32.4C46.9999 31.9594 46.6405 31.6 46.1999 31.6H7.79991C7.77491 31.6 7.74991 31.6 7.72491 31.6C7.69991 31.6 7.67491 31.6 7.64991 31.6ZM8.59991 33.2H45.3999V34.8H8.59991V33.2ZM10.5499 36.4H43.4499C43.178 36.8719 42.9999 37.4156 42.9999 38V43.6C42.9999 47.5625 39.7624 50.8 35.7999 50.8H18.1999C14.2374 50.8 10.9999 47.5625 10.9999 43.6V38C10.9999 37.4156 10.8218 36.8719 10.5499 36.4Z" fill="black"/>
</g>
<path d="M13.333 29.5111L14.5167 29.5315C16.8879 29.5724 19.1105 28.3802 20.3881 26.3822V26.3822C21.6657 24.3842 23.8884 23.1921 26.2595 23.2329L29.4426 23.2877" stroke="black" stroke-width="1.6"/>
<path d="M24.5588 28.4844L25.742 28.5225C28.1123 28.5989 30.3526 27.4401 31.66 25.4615V25.4615C32.9673 23.4828 35.2075 22.324 37.5778 22.4004L40.7597 22.5028" stroke="black" stroke-width="1.6"/>
<defs>
<clipPath id="clip0_25_41">
<rect width="40" height="40" fill="white" transform="translate(7 22)"/>
</clipPath>
</defs>
</svg>
